<svg xmlns="http://www.w3.org/2000/svg" xmlns:xlink="http://www.w3.org/1999/xlink" width="1545" height="480" viewBox="0 0 1545 480" fill="none"><link xmlns="" type="text/css" rel="stylesheet" id="dark-mode-custom-link"/><link xmlns="" type="text/css" rel="stylesheet" id="dark-mode-general-link"/><style xmlns="" lang="en" type="text/css" id="dark-mode-custom-style"/><style xmlns="" lang="en" type="text/css" id="dark-mode-native-style"/>
<path d="M1144.61 191.833C1114.46 195.61 1092.27 212.688 1084.09 238.187C1078.5 255.58 1079.13 272.028 1086.21 288.791C1094.55 308.623 1112.5 322.71 1136.34 328.062C1143.19 329.636 1161.05 329.793 1168.14 328.377C1195.76 322.946 1215.12 305.79 1223.07 279.74C1224.96 273.523 1225.19 271.634 1225.19 260.616C1225.19 249.598 1224.96 247.71 1223.07 241.492C1215.2 215.836 1196.55 198.916 1169.87 193.249C1164.44 192.148 1149.33 191.282 1144.61 191.833ZM1161.53 225.595C1171.52 228.192 1180.89 234.724 1185.29 242.279C1191.98 253.691 1191.75 268.722 1184.82 279.662C1172.31 299.337 1143.74 302.563 1126.58 286.194C1112.26 272.579 1111.79 251.015 1125.4 236.298C1134.38 226.539 1148.78 222.368 1161.53 225.595Z"/>
<path d="M1291.77 191.833C1261.63 195.61 1239.44 212.688 1231.25 238.187C1225.67 255.58 1226.3 272.028 1233.38 288.791C1241.72 308.623 1259.67 322.71 1283.51 328.062C1290.36 329.636 1308.22 329.793 1315.31 328.377C1342.93 322.946 1362.29 305.79 1370.24 279.74C1372.13 273.523 1372.36 271.634 1372.36 260.616C1372.36 249.598 1372.13 247.71 1370.24 241.492C1362.37 215.836 1343.72 198.916 1317.04 193.249C1311.61 192.148 1296.5 191.282 1291.77 191.833ZM1308.69 225.595C1318.69 228.192 1328.06 234.724 1332.46 242.279C1339.15 253.691 1338.92 268.722 1331.99 279.662C1319.48 299.337 1290.91 302.563 1273.75 286.194C1259.43 272.579 1258.96 251.015 1272.57 236.298C1281.54 226.539 1295.95 222.368 1308.69 225.595Z"/>
<path d="M1490.02 192.226C1472.47 194.745 1459.33 205.999 1455.08 222.132C1450.98 237.321 1453.9 252.904 1462.08 260.459C1466.96 264.945 1472.71 267.621 1488.6 272.736C1504.03 277.694 1507.49 279.819 1509.06 285.013C1510.87 290.994 1506.39 298.077 1499.7 299.966C1496 300.989 1489.15 300.989 1484.59 299.887C1479.55 298.707 1470.58 294.3 1466.72 290.994C1464.99 289.42 1463.1 288.161 1462.71 288.161C1462.32 288.161 1460.43 291.073 1458.54 294.615C1455.94 299.651 1455.08 300.753 1454.84 299.337L1454.6 297.605H1434.14H1413.76V246.057V194.509H1396.84H1379.92V260.616V326.724H1417.3H1454.68V323.183C1454.68 321.215 1454.84 319.641 1455 319.641C1455.16 319.641 1458.22 321.058 1461.84 322.71C1472.94 327.904 1479.95 329.4 1493.64 329.4C1507.02 329.4 1513.31 328.219 1521.58 324.206C1528.11 321.058 1537 312.322 1539.99 306.183C1545.9 293.906 1546.68 277.458 1541.8 266.991C1540.94 265.023 1538.03 261.246 1535.35 258.57C1529.6 252.746 1523.39 249.677 1507.41 244.562C1501.12 242.594 1494.82 240.233 1493.4 239.367C1488.29 236.219 1487.26 229.294 1491.28 224.965C1498.28 217.489 1510.64 218.197 1523.62 226.775L1526.14 228.428L1532.99 215.285C1536.69 208.124 1539.68 202.142 1539.52 201.985C1538.73 201.198 1529.13 197.421 1523.7 195.689C1512.05 191.99 1499.94 190.731 1490.02 192.226Z"/>
<path d="M539 241.9V329H569.8C586.7 329 604.4 328.5 609 328C647 323.3 675.1 300.3 684.1 266.4C687.1 255.2 687.8 235.4 685.6 223.7C681.3 200.9 669.4 182.5 651.2 170.1C643 164.5 635.7 161.4 624 158.2C614.8 155.7 613.4 155.7 576.8 155.2L539 154.8V241.9ZM606.2 190.4C630.1 195.5 646 215.5 646 240.5C645.9 257.1 640.8 271.4 631.3 280.8C621.9 290.3 607.8 294.9 588.3 295H579V242V189H589.3C594.9 189 602.5 189.7 606.2 190.4Z"/>
<path d="M700 242V329L773.3 328.9H846.5L865.4 302.4C875.9 287.9 884.6 276 884.9 276C885.3 276 894.1 287.9 904.5 302.5L923.5 329H947.3C960.3 329 971 328.7 971 328.4C971 328.1 957 308.5 940 284.9L909 242L938.6 200.7C954.9 178.1 969.1 158.6 970.1 157.5C972 155.6 972 155.9 972 173.3V191H990H1008V260V329H1029.5H1051V260V191L1072 190.8L1092.9 190.5L1081.7 172.8L1070.5 155.1L997 155H923.4L904.5 181.5C894 196 885.3 207.9 885 208C884.7 208 875.9 196.1 865.5 181.5L846.5 155H773.3H700V242ZM829.4 198.4C846.2 221.7 860 241.3 860 241.9C860 242.5 846.2 262.2 829.3 285.7L798.5 328.4L798.2 311.7L798 295H769H740V275.5V256H763.5H787V239.5V223H763.5H740V206V189H769H798V172.5C798 163.4 798.2 156 798.4 156C798.7 156 812.6 175.1 829.4 198.4Z"/>
</svg>